<?xml version="1.0" encoding="utf-8"?>
<!-- Generator: Adobe Illustrator 21.1.0, SVG Export Plug-In . SVG Version: 6.00 Build 0)  -->
<svg version="1.1" id="Layer_1" xmlns="http://www.w3.org/2000/svg" xmlns:xlink="http://www.w3.org/1999/xlink" x="0px" y="0px"
	 viewBox="0 0 550 120" style="enable-background:new 0 0 550 120;" xml:space="preserve">
<style type="text/css">
	.st0{fill:#FFFFFF;}
</style>
<g>
	<path class="st0" d="M24.9,59.6c0,4.7,0.7,9.2,1.9,13.4c0.1,0.3,0.1,0.6,0.2,0.9c0,0.1,0,0.1,0.1,0.2c6.2,20,24.8,34.6,46.8,34.6
		c10.2,0,19.6-3.1,27.5-8.4c0.1,0,0.2-0.1,0.2-0.1c0.5-0.3,0.9-0.7,1.4-1c9-6.7,15.7-16.3,18.5-27.5c0.2-0.5,0.3-1,0.4-1.6
		c0-0.1,0-0.2,0-0.4c0.7-3.2,1-6.6,1-10c0-6.6-1.3-13-3.9-19.1c-0.5-1.2-1.8-1.7-3-1.2c-1.2,0.5-1.7,1.8-1.2,3
		c2.3,5.5,3.5,11.3,3.5,17.3c0,3.7-0.5,7.3-1.3,10.7c-0.7,2.2-1.9,4.2-3.5,6c0-0.8,0.1-1.6,0.1-2.4c0-8.7-2.4-18-6.9-26.7
		c3.3-2.8,5.4-6.3,6.1-10.2c0.2-1.2-0.6-2.4-1.8-2.7c-1.2-0.2-2.4,0.6-2.7,1.8c-0.5,2.6-1.8,4.9-3.9,7c-0.7-1.1-1.3-2.1-2-3.2
		c-4-5.9-8.8-10.9-14-15c6.9,0.5,13.2,2.1,18.3,5c0.8,0.5,1.9,0.4,2.6-0.2c1-0.8,1.1-2.2,0.3-3.2c-7.3-10.3-20-15.9-35.8-15.9
		C46.9,10.6,24.9,32.6,24.9,59.6 M75.1,17.3c-2.1-0.8-4.1-1.4-6.1-1.8c1.6-0.2,3.2-0.3,4.9-0.3c0.8,0,1.7,0.9,2.7,2.7
		C76.1,17.7,75.6,17.5,75.1,17.3 M80,15.5c1.9,0.2,3.8,0.5,5.8,1c-1.3,0.7-2.6,1.5-3.9,2.6C81.3,17.7,80.7,16.5,80,15.5 M87.7,20.4
		c1.6-1,3-1.7,4.2-2c2.3,0.9,4.6,2.1,6.7,3.6C95.1,21.1,91.5,20.6,87.7,20.4 M50.7,26.4c0.5-2.4,1.9-4.5,4.1-6.2
		c5.3-1.6,11.5-1.2,18,1.2c-2.7,0.5-5.5,1.1-8.2,1.9c-5,1.5-9.8,3.6-14.1,6.1C50.4,28.4,50.5,27.4,50.7,26.4 M46.4,24.7
		c-0.1,0.2-0.1,0.5-0.2,0.7c-0.5,2.1-0.4,4.4,0.1,6.5c-4.9,3.4-9.2,7.4-12.6,11.9c-1,1.4-2,2.8-2.8,4.2C33.5,38.7,39,30.6,46.4,24.7
		 M56.2,39.3c-1.9-1.8-3.3-3.6-4.3-5.5c4.3-2.6,9-4.7,14-6.2c3-0.9,6-1.6,9.1-2c-4.4,4.9-8.7,11.1-12.7,18.1
		C60,42.4,58,40.9,56.2,39.3 M75.7,48.8c-3.3-0.7-6.4-1.7-9.3-3c4.3-7.4,8.9-13.9,13.5-18.7c1.4,5.6,2.6,13.2,3.1,22.6
		C80.6,49.6,78.1,49.3,75.7,48.8 M84.7,27.9c5.2,3.9,9.9,8.8,13.9,14.7c0.8,1.1,1.5,2.2,2.1,3.4c-3.6,2.1-8.2,3.4-13.2,3.7
		C87.1,41.8,86.2,34.2,84.7,27.9 M39.1,70.3c-3.9-3.6-6.5-7.4-7.9-11.1c1.1-4.2,3.2-8.4,6.2-12.5c2.9-3.8,6.5-7.3,10.7-10.3
		c1.2,2.2,2.9,4.3,5,6.3c2,1.9,4.4,3.6,7,5.1c-0.7,1.4-1.4,2.8-2.1,4.2c-4,8.3-7.3,17.2-9.3,25.3C45.1,75.1,41.9,72.8,39.1,70.3
		 M68.7,84.6c-5.6-1.2-11-3-15.8-5.3c1.6-7.1,4.5-15.8,9.2-25.4c0.7-1.4,1.4-2.8,2.1-4.1c3.3,1.5,6.8,2.6,10.6,3.4
		c2.8,0.6,5.7,0.9,8.5,1c0.1,1.7,0.1,3.5,0.1,5.3c0,10.7-0.9,19.6-2.1,26.6C77.1,86,72.9,85.5,68.7,84.6 M87.8,59.6
		c0-1.8,0-3.6-0.1-5.4c5.7-0.4,10.9-1.8,15.2-4.3c4,7.9,6.1,16.2,6.1,24c0,2.3-0.2,4.4-0.6,6.5c-2.1,1.3-4.4,2.3-7.1,3.2
		c-4.7,1.6-10,2.4-15.6,2.6C87.2,78.1,87.8,68.7,87.8,59.6 M31.2,71.8c-0.4-1.5-0.6-3-0.7-4.5c1.5,2.2,3.4,4.3,5.6,6.3
		c3.3,3.1,7.3,5.8,11.7,8.2c-0.9,5-1.2,9.6-0.6,13.3C39.5,89.3,33.8,81.2,31.2,71.8 M54.7,99.7c-0.1-0.1-0.3-0.2-0.4-0.3
		c-2.5-1.2-3.6-6.9-2.2-15.5c4.9,2.2,10.2,3.9,15.7,5.1c4.2,0.9,8.4,1.5,12.5,1.7c-2,8.8-4.6,13.4-6.3,13.4c-0.1,0-0.2,0-0.3,0
		C66.8,104,60.4,102.5,54.7,99.7 M85,90.8c6.4-0.1,12.5-1,18-2.8c1.4-0.5,2.7-1,3.9-1.5c-1.5,3.7-3.7,6.7-6.6,9
		c-5.7,4.2-12.4,7.1-19.7,8.2C82.4,100.4,83.8,96,85,90.8"/>
	<path class="st0" d="M24.9,59.6c0,4.7,0.7,9.2,1.9,13.4c0.1,0.3,0.1,0.6,0.2,0.9c0,0.1,0,0.1,0.1,0.2c6.2,20,24.8,34.6,46.8,34.6
		c10.2,0,19.6-3.1,27.5-8.4c0.1,0,0.2-0.1,0.2-0.1c0.5-0.3,0.9-0.7,1.4-1c9-6.7,15.7-16.3,18.5-27.5c0.2-0.5,0.3-1,0.4-1.6
		c0-0.1,0-0.2,0-0.4c0.7-3.2,1-6.6,1-10c0-6.6-1.3-13-3.9-19.1c-0.5-1.2-1.8-1.7-3-1.2c-1.2,0.5-1.7,1.8-1.2,3
		c2.3,5.5,3.5,11.3,3.5,17.3c0,3.7-0.5,7.3-1.3,10.7c-0.7,2.2-1.9,4.2-3.5,6c0-0.8,0.1-1.6,0.1-2.4c0-8.7-2.4-18-6.9-26.7
		c3.3-2.8,5.4-6.3,6.1-10.2c0.2-1.2-0.6-2.4-1.8-2.7c-1.2-0.2-2.4,0.6-2.7,1.8c-0.5,2.6-1.8,4.9-3.9,7c-0.7-1.1-1.3-2.1-2-3.2
		c-4-5.9-8.8-10.9-14-15c6.9,0.5,13.2,2.1,18.3,5c0.8,0.5,1.9,0.4,2.6-0.2c1-0.8,1.1-2.2,0.3-3.2c-7.3-10.3-20-15.9-35.8-15.9
		C46.9,10.6,24.9,32.6,24.9,59.6 M75.1,17.3c-2.1-0.8-4.1-1.4-6.1-1.8c1.6-0.2,3.2-0.3,4.9-0.3c0.8,0,1.7,0.9,2.7,2.7
		C76.1,17.7,75.6,17.5,75.1,17.3 M80,15.5c1.9,0.2,3.8,0.5,5.8,1c-1.3,0.7-2.6,1.5-3.9,2.6C81.3,17.7,80.7,16.5,80,15.5 M87.7,20.4
		c1.6-1,3-1.7,4.2-2c2.3,0.9,4.6,2.1,6.7,3.6C95.1,21.1,91.5,20.6,87.7,20.4 M50.7,26.4c0.5-2.4,1.9-4.5,4.1-6.2
		c5.3-1.6,11.5-1.2,18,1.2c-2.7,0.5-5.5,1.1-8.2,1.9c-5,1.5-9.8,3.6-14.1,6.1C50.4,28.4,50.5,27.4,50.7,26.4 M46.4,24.7
		c-0.1,0.2-0.1,0.5-0.2,0.7c-0.5,2.1-0.4,4.4,0.1,6.5c-4.9,3.4-9.2,7.4-12.6,11.9c-1,1.4-2,2.8-2.8,4.2C33.5,38.7,39,30.6,46.4,24.7
		 M56.2,39.3c-1.9-1.8-3.3-3.6-4.3-5.5c4.3-2.6,9-4.7,14-6.2c3-0.9,6-1.6,9.1-2c-4.4,4.9-8.7,11.1-12.7,18.1
		C60,42.4,58,40.9,56.2,39.3 M75.7,48.8c-3.3-0.7-6.4-1.7-9.3-3c4.3-7.4,8.9-13.9,13.5-18.7c1.4,5.6,2.6,13.2,3.1,22.6
		C80.6,49.6,78.1,49.3,75.7,48.8 M84.7,27.9c5.2,3.9,9.9,8.8,13.9,14.7c0.8,1.1,1.5,2.2,2.1,3.4c-3.6,2.1-8.2,3.4-13.2,3.7
		C87.1,41.8,86.2,34.2,84.7,27.9 M39.1,70.3c-3.9-3.6-6.5-7.4-7.9-11.1c1.1-4.2,3.2-8.4,6.2-12.5c2.9-3.8,6.5-7.3,10.7-10.3
		c1.2,2.2,2.9,4.3,5,6.3c2,1.9,4.4,3.6,7,5.1c-0.7,1.4-1.4,2.8-2.1,4.2c-4,8.3-7.3,17.2-9.3,25.3C45.1,75.1,41.9,72.8,39.1,70.3
		 M68.7,84.6c-5.6-1.2-11-3-15.8-5.3c1.6-7.1,4.5-15.8,9.2-25.4c0.7-1.4,1.4-2.8,2.1-4.1c3.3,1.5,6.8,2.6,10.6,3.4
		c2.8,0.6,5.7,0.9,8.5,1c0.1,1.7,0.1,3.5,0.1,5.3c0,10.7-0.9,19.6-2.1,26.6C77.1,86,72.9,85.5,68.7,84.6 M87.8,59.6
		c0-1.8,0-3.6-0.1-5.4c5.7-0.4,10.9-1.8,15.2-4.3c4,7.9,6.1,16.2,6.1,24c0,2.3-0.2,4.4-0.6,6.5c-2.1,1.3-4.4,2.3-7.1,3.2
		c-4.7,1.6-10,2.4-15.6,2.6C87.2,78.1,87.8,68.7,87.8,59.6 M31.2,71.8c-0.4-1.5-0.6-3-0.7-4.5c1.5,2.2,3.4,4.3,5.6,6.3
		c3.3,3.1,7.3,5.8,11.7,8.2c-0.9,5-1.2,9.6-0.6,13.3C39.5,89.3,33.8,81.2,31.2,71.8 M54.7,99.7c-0.1-0.1-0.3-0.2-0.4-0.3
		c-2.5-1.2-3.6-6.9-2.2-15.5c4.9,2.2,10.2,3.9,15.7,5.1c4.2,0.9,8.4,1.5,12.5,1.7c-2,8.8-4.6,13.4-6.3,13.4c-0.1,0-0.2,0-0.3,0
		C66.8,104,60.4,102.5,54.7,99.7 M85,90.8c6.4-0.1,12.5-1,18-2.8c1.4-0.5,2.7-1,3.9-1.5c-1.5,3.7-3.7,6.7-6.6,9
		c-5.7,4.2-12.4,7.1-19.7,8.2C82.4,100.4,83.8,96,85,90.8"/>
	<path class="st0" d="M166.2,47.1h6.9l-8.2,28.7h-6.9l-5-18l-5.1,18H141l-8.2-28.7h7.1l4.8,20.9l5.8-20.9h5.1l5.6,20.9L166.2,47.1z
		 M186.8,70.6c2.4,0,6.5-1.2,6.5-9.2c0-8-4.1-9.2-6.5-9.2c-4.2,0-6.5,3.3-6.5,9.2C180.2,67.4,182.5,70.6,186.8,70.6 M186.8,46.8
		c6.2,0,12.8,3.8,12.8,14.6c0,10.7-6.6,14.5-12.8,14.5c-6.2,0-12.8-3.8-12.8-14.5C173.9,50.7,180.6,46.8,186.8,46.8 M209.2,60.5h3.4
		c3.4,0,5.5-1.6,5.5-4.1c0-2.7-1.8-4.2-5-4.2h-3.9V60.5z M221.8,67c1,2.1,1.9,3.8,3.9,3.8h1.5v4.7l-0.2,0.1c0,0-1.1,0.3-3,0.3
		c-4.8,0-6.3-3.3-7.6-6.2c-1.1-2.4-2-4.5-4.5-4.5h-2.7v10.5h-6.1V47.1h10.2c7.4,0,10.9,2.9,10.9,9.1c0,3.9-2.3,6.2-4.6,7.2
		C220.5,64.4,221.1,65.7,221.8,67 M236.1,47.1H230v28.7h18.5v-5.1h-12.4V47.1z M257.5,70.7h3.6c4.4,0,7-3.3,7-8.9
		c0-6.4-2.8-9.7-8.3-9.7h-2.3V70.7z M259.9,47.1c8.9,0,14.3,5.5,14.3,14.8c0,8.8-4.8,13.9-13,13.9h-9.7V47.1H259.9z M291.1,70.7h4.8
		c3.1,0,4.6-1.2,4.6-3.7c0-3.1-2.6-3.7-4.7-3.7h-4.6V70.7z M295.3,58.8c2.5,0,3.7-1.1,3.7-3.4c0-2.2-1.5-3.3-4.5-3.3h-3.4v6.7H295.3
		z M302.1,60.6c2.2,0.6,5.1,2.7,5.1,7c0,5.2-3.7,8.2-10.1,8.2H285V47.1H296c6.2,0,9.4,2.6,9.4,7.7C305.3,58.7,303.5,60.1,302.1,60.6
		 M321.3,54.9l-3.1,9h6.3L321.3,54.9z M324.4,47.3l10.5,28.5h-6.4l-2.4-7h-9.5l-2.4,7h-6.4l10.5-28.7h6.1L324.4,47.3z M352.7,64.8
		l-10-17.7h-6.2v28.7h6.1V58.6l10,17.1h6.2V47.1h-6.1V64.8z M387.3,47.1H380L370.5,60V47.1h-6.2v28.7h6.2V62.5l9.7,13.2h7.3
		l-11.1-14.5L387.3,47.1z M405.5,65.3h6.3v0.3c0,1.9-0.7,5-5.1,5c-4.1,0-6.6-3.4-6.6-9.1c0-5.8,2.4-9.2,6.5-9.2c4.9,0,5.1,5,5.1,5.2
		l0,0.3l5.7-0.9v-0.2c0-2.1-1.8-9.8-10.9-9.8c-8.1,0-12.7,5.3-12.7,14.6c0,9.1,4.8,14.5,12.8,14.5c8.1,0,10.9-5.6,10.9-10.4v-5h-12
		V65.3z M427.9,60.5h3.4c3.4,0,5.5-1.6,5.5-4.1c0-2.7-1.8-4.2-5.1-4.2h-3.8V60.5z M440.5,67c1,2.1,1.9,3.8,3.9,3.8h1.5v4.7l-0.2,0.1
		c0,0-1.1,0.3-3,0.3c-4.8,0-6.3-3.3-7.6-6.2c-1.1-2.4-2-4.5-4.5-4.5h-2.7v10.5h-6.1V47.1h10.2c7.4,0,10.9,2.9,10.9,9.1
		c0,3.9-2.3,6.2-4.6,7.2C439.2,64.4,439.9,65.7,440.5,67 M459.7,70.6c2.4,0,6.5-1.2,6.5-9.2c0-8-4.1-9.2-6.5-9.2
		c-4.2,0-6.5,3.3-6.5,9.2C453.1,67.4,455.5,70.6,459.7,70.6 M459.7,46.8c6.2,0,12.8,3.8,12.8,14.6c0,10.7-6.6,14.5-12.8,14.5
		c-6.2,0-12.8-3.8-12.8-14.5C446.8,50.7,453.5,46.8,459.7,46.8 M492.4,64.2c0,4.2-1.6,6.3-4.9,6.3c-3.4,0-5.1-2.1-5.1-6.3V47.1h-6.1
		v16.8c0,4.1,1,7.2,3,9.3c1.9,1.9,4.6,2.9,8.1,2.9c5,0,11-2.1,11-12.1V47.1h-6.1V64.2z M509.8,61.6h3.7c3.5,0,5.3-1.5,5.3-4.6
		c0-3.1-2-4.8-5.5-4.8h-3.4V61.6z M513.7,47.1c7.2,0,11.2,3.5,11.2,9.9c0,6-3.9,9.6-10.5,9.6h-4.6v9.2h-6.1V47.1H513.7z"/>
</g>
</svg>
